<svg width="96" height="96" viewBox="0 0 96 96" fill="none" xmlns="http://www.w3.org/2000/svg" role="img" aria-labelledby="title desc">
    <title id="title">ERP System logo</title>
    <desc id="desc">A teal and blue ERP monogram with dashboard bars.</desc>
    <defs>
        <linearGradient id="erp-bg" x1="16" y1="12" x2="82" y2="86" gradientUnits="userSpaceOnUse">
            <stop stop-color="#14B8A6"/>
            <stop offset="1" stop-color="#2563EB"/>
        </linearGradient>
        <linearGradient id="erp-shine" x1="22" y1="18" x2="76" y2="74" gradientUnits="userSpaceOnUse">
            <stop stop-color="#FFFFFF" stop-opacity=".95"/>
            <stop offset="1" stop-color="#E0F2FE" stop-opacity=".76"/>
        </linearGradient>
        <filter id="erp-shadow" x="0" y="0" width="96" height="96" filterUnits="userSpaceOnUse" color-interpolation-filters="sRGB">
            <feDropShadow dx="0" dy="10" stdDeviation="10" flood-color="#0F766E" flood-opacity=".24"/>
        </filter>
    </defs>
    <rect x="8" y="8" width="80" height="80" rx="18" fill="url(#erp-bg)" filter="url(#erp-shadow)"/>
    <path d="M28 28h34c5.8 0 10.5 4.7 10.5 10.5S67.8 49 62 49H42v19H28V28Z" fill="white" fill-opacity=".16"/>
    <path d="M30 29h35v10H42v9h20v10H42v9h25v10H30V29Z" fill="url(#erp-shine)"/>
    <path d="M53 67V52h7v15h-7Zm11 0V45h7v22h-7Z" fill="#FFFFFF" fill-opacity=".9"/>
    <path d="M50 43c7.1 3.1 14.1 2.5 21-3" stroke="#CCFBF1" stroke-width="4" stroke-linecap="round"/>
</svg>
